<svg xmlns="http://www.w3.org/2000/svg" width="202" height="119" viewBox="0 0 202 119">
  <defs>
    <style>
      .cls-1 {
        fill: none;
      }

      .cls-2 {
        fill: #f40f0f;
      }

      .cls-10, .cls-3 {
        fill: snow;
      }

      .cls-3 {
        stroke: #070000;
      }

      .cls-10, .cls-11, .cls-3, .cls-5 {
        stroke-miterlimit: 10;
        stroke-width: 0.5px;
      }

      .cls-4 {
        fill: #0b584d;
      }

      .cls-11, .cls-5 {
        fill: #fcfcfc;
      }

      .cls-5 {
        stroke: #050000;
      }

      .cls-6 {
        fill: #ffc3a0;
      }

      .cls-7 {
        fill: #e50a43;
      }

      .cls-8 {
        fill: #0a0104;
      }

      .cls-9 {
        fill: #7a7879;
      }

      .cls-10 {
        stroke: #000;
      }

      .cls-11 {
        stroke: #020000;
      }
    </style>
  </defs>
  <title>nisse</title>
  <g id="Layer_1" data-name="Layer 1">
    <rect class="cls-1" y="-0.5" width="101" height="120"/>
    <rect class="cls-1" x="101" width="101" height="120"/>
    <rect class="cls-1" x="202" width="101" height="120"/>
  </g>
  <g id="Layer_6" data-name="Layer 6">
    <polygon class="cls-2" points="47.47 17.25 71.47 29.25 71.47 4.25 47.47 17.25"/>
    <circle class="cls-3" cx="72.5" cy="7.75" r="3.5"/>
    <rect class="cls-4" x="119.75" y="39.25" width="9" height="34" rx="4.5" transform="translate(-11.22 72.03) rotate(-31)"/>
    <rect class="cls-4" x="179.75" y="52.25" width="9" height="34" rx="4.5" transform="translate(377.85 33.72) rotate(149)"/>
    <rect class="cls-4" x="132.75" y="80.25" width="9" height="34" rx="4.5" transform="translate(-1.68 2.41) rotate(-1)"/>
    <rect class="cls-4" x="165.75" y="79.25" width="9" height="34" rx="4.5" transform="translate(-1.65 2.99) rotate(-1)"/>
    <rect class="cls-4" x="125.75" y="51.25" width="56" height="40" rx="10.14"/>
    <circle class="cls-5" cx="153.25" cy="45.25" r="27.5"/>
    <path class="cls-6" d="M169.75,42.25c0,8.84-32,8.84-32,0a16,16,0,0,1,32,0Z"/>
    <ellipse class="cls-7" cx="153.75" cy="48.75" rx="3" ry="1.5"/>
    <circle class="cls-8" cx="146.75" cy="38.25" r="2"/>
    <circle class="cls-8" cx="160.75" cy="38.25" r="2"/>
    <path class="cls-9" d="M147.16,31.65v1.49l1.6-.21a11.44,11.44,0,0,0-.52-1.49.82.82,0,0,0-1.57,0l-.57,1.5h1.57a8.16,8.16,0,0,0-.74-1.55.83.83,0,0,0-1.49.2l-.34,1.28,1.49-.19a2.4,2.4,0,0,1-.25-1c-.05-.71-1.16-1.22-1.52-.41l-.44,1h1.4L145.16,31c-.38-.77-1.48-.34-1.52.41L143.57,33l1.52-.41-.62-1.23a.82.82,0,0,0-1.49.2l-.36,2,1.49-.2a2.53,2.53,0,0,0-.48-.6.82.82,0,0,0-1.36.36l-.05.1,1.36.36a1.25,1.25,0,0,1-.14-.71.81.81,0,0,0-1.51-.41l-.36.65,1.49.63c.13-.79-.34-1.79-1.3-1.4s-.54,2,.43,1.57l.15-.06-.63-.08-.22-.46c-.14.84,1,1.5,1.49.62l.35-.65-1.52-.41A3,3,0,0,0,142,34c.19.51.94.89,1.36.36a2.47,2.47,0,0,0,.47-.82l-1.36.36.23.28c.34.54,1.36.53,1.49-.2l.35-2-1.49.2.62,1.22c.38.77,1.48.35,1.52-.41l.07-1.58-1.52.41.63,1.27a.82.82,0,0,0,1.4,0l.45-1-1.52-.41a5.32,5.32,0,0,0,.47,1.84c.29.66,1.32.44,1.49-.19L147,32l-1.49.2a5.9,5.9,0,0,1,.58,1.15.82.82,0,0,0,1.57,0l.57-1.5h-1.57a11.44,11.44,0,0,1,.52,1.49.82.82,0,0,0,1.6-.22V31.65a.82.82,0,0,0-1.63,0Z"/>
    <path class="cls-9" d="M158.16,30.65v1.49a.82.82,0,0,0,1.6.22,11.44,11.44,0,0,1,.52-1.49h-1.57l.57,1.5a.82.82,0,0,0,1.57,0,5.9,5.9,0,0,1,.58-1.15l-1.49-.2.34,1.29c.17.62,1.2.85,1.49.19a5.32,5.32,0,0,0,.47-1.84l-1.52.41.45,1a.82.82,0,0,0,1.41,0l.62-1.27-1.52-.41.07,1.58c0,.76,1.14,1.18,1.52.41l.62-1.22L162.4,31l.35,2a.82.82,0,0,0,1.49.2l.23-.28-1.36-.36a2.47,2.47,0,0,0,.47.82c.42.53,1.17.15,1.36-.36a3,3,0,0,0,.2-1.14l-1.52.41.35.65c.47.87,1.63.23,1.49-.62l-.22.46-.63.08.15.06c1,.4,1.39-1.17.43-1.57s-1.43.62-1.3,1.4l1.49-.63-.35-.65a.82.82,0,0,0-1.52.41,1.25,1.25,0,0,1-.14.71l1.36-.36,0-.1a.82.82,0,0,0-1.36-.36,2.53,2.53,0,0,0-.48.6l1.49.2-.36-2a.83.83,0,0,0-1.49-.2l-.62,1.23,1.52.41-.07-1.58c0-.75-1.14-1.18-1.52-.41l-.62,1.26h1.41l-.45-1c-.36-.81-1.46-.3-1.52.41a2.4,2.4,0,0,1-.25,1l1.49.19-.34-1.28a.82.82,0,0,0-1.49-.2,8.16,8.16,0,0,0-.74,1.55h1.57l-.57-1.5a.82.82,0,0,0-1.57,0,11.44,11.44,0,0,0-.52,1.49l1.6.21V30.65a.82.82,0,0,0-1.63,0Z"/>
    <polygon class="cls-2" points="152.75 18.25 176.75 30.25 176.75 5.25 152.75 18.25"/>
    <circle class="cls-10" cx="177.5" cy="8.75" r="3.5"/>
  </g>
  <g id="Layer_3" data-name="Layer 3">
    <rect class="cls-4" x="14.47" y="38.25" width="9" height="34" rx="4.5" transform="translate(76.49 65.45) rotate(119)"/>
    <rect class="cls-4" x="74" y="55.25" width="9" height="34" rx="4.5" transform="translate(183 93.75) rotate(149)"/>
    <rect class="cls-4" x="27.47" y="79.25" width="9" height="34" rx="4.5" transform="translate(-1.67 0.57) rotate(-1)"/>
    <rect class="cls-4" x="60.47" y="78.25" width="9" height="34" rx="4.5" transform="translate(-1.65 1.15) rotate(-1)"/>
  </g>
  <g id="Layer_2" data-name="Layer 2">
    <rect class="cls-4" x="20.47" y="51.5" width="56" height="40" rx="10.14"/>
    <circle class="cls-11" cx="47.97" cy="45.5" r="27.5"/>
  </g>
  <g id="Layer_4" data-name="Layer 4">
    <path class="cls-6" d="M64.47,42.5c0,8.84-32,8.84-32,0a16,16,0,0,1,32,0Z"/>
  </g>
  <g id="Layer_5" data-name="Layer 5">
    <ellipse class="cls-7" cx="48.47" cy="49" rx="3" ry="1.5"/>
    <circle class="cls-8" cx="41.47" cy="38.5" r="2"/>
    <circle class="cls-8" cx="55.47" cy="38.5" r="2"/>
    <path class="cls-9" d="M41.88,32.9v1.49l1.6-.21A11.44,11.44,0,0,0,43,32.69a.82.82,0,0,0-1.57,0l-.57,1.5h1.57a7.8,7.8,0,0,0-.74-1.54.82.82,0,0,0-1.49.19l-.34,1.28,1.49-.19a2.4,2.4,0,0,1-.25-1c-.06-.71-1.16-1.22-1.52-.41l-.45,1H40.5l-.62-1.26c-.38-.77-1.49-.34-1.52.41l-.07,1.58,1.52-.41-.62-1.23a.82.82,0,0,0-1.49.2l-.36,2,1.49-.2a2.53,2.53,0,0,0-.48-.6.82.82,0,0,0-1.36.36l-.05.1,1.36.36a1.25,1.25,0,0,1-.14-.71.82.82,0,0,0-1.52-.41l-.35.65,1.49.63c.13-.78-.34-1.79-1.3-1.4s-.54,2,.43,1.58l.15-.07L36.43,35l-.22-.46c-.14.84,1,1.5,1.49.62l.35-.65-1.52-.41a3,3,0,0,0,.2,1.14c.19.51.94.89,1.36.36a2.47,2.47,0,0,0,.47-.82l-1.36.36.23.28a.83.83,0,0,0,1.49-.2l.35-2-1.49.2.62,1.22c.38.77,1.48.35,1.52-.41L40,32.66l-1.52.41.62,1.27a.82.82,0,0,0,1.41,0l.45-1-1.52-.41a5.32,5.32,0,0,0,.47,1.84c.29.66,1.32.44,1.49-.19l.34-1.29-1.49.2a5.9,5.9,0,0,1,.58,1.15.82.82,0,0,0,1.57,0l.57-1.5H41.39a11.44,11.44,0,0,1,.52,1.49.82.82,0,0,0,1.6-.22V32.9a.82.82,0,0,0-1.63,0Z"/>
    <path class="cls-9" d="M52.88,32.9v1.49a.82.82,0,0,0,1.6.22A11.44,11.44,0,0,1,55,33.12H53.43l.57,1.5a.82.82,0,0,0,1.57,0,5.9,5.9,0,0,1,.58-1.15l-1.49-.2L55,34.56a.83.83,0,0,0,1.49.19A5.32,5.32,0,0,0,57,32.91l-1.52.41.45,1a.82.82,0,0,0,1.4,0l.63-1.27-1.52-.41.07,1.58c0,.76,1.14,1.18,1.52.41l.62-1.22-1.49-.2.35,2a.82.82,0,0,0,1.49.2l.23-.28-1.36-.36a2.47,2.47,0,0,0,.47.82c.42.53,1.17.15,1.36-.36a3,3,0,0,0,.2-1.14l-1.52.41.35.65c.47.87,1.63.23,1.49-.62L60,35l-.63.08.15.07c1,.39,1.39-1.18.43-1.58s-1.43.62-1.3,1.4l1.49-.63-.35-.65a.82.82,0,0,0-1.52.41,1.25,1.25,0,0,1-.14.71l1.36-.36-.05-.1A.82.82,0,0,0,58,34a2.53,2.53,0,0,0-.48.6l1.49.2-.36-2a.83.83,0,0,0-1.49-.2l-.62,1.23,1.52.41L58,32.66c0-.75-1.14-1.18-1.52-.41l-.62,1.26h1.4l-.44-1c-.36-.81-1.47-.3-1.52.41a2.4,2.4,0,0,1-.25,1l1.49.19-.34-1.28a.82.82,0,0,0-1.49-.19A7.8,7.8,0,0,0,54,34.19h1.57L55,32.69a.82.82,0,0,0-1.57,0,11.44,11.44,0,0,0-.52,1.49l1.6.21V32.9a.82.82,0,0,0-1.63,0Z"/>
  </g>
</svg>
