<svg xmlns="http://www.w3.org/2000/svg" width="808" height="119" viewBox="0 0 808 119">
  <defs>
    <style>
      .cls-1 {
        fill: #6d2020;
      }

      .cls-2 {
        fill: #b55050;
      }

      .cls-3 {
        fill: #f40f0f;
      }

      .cls-4 {
        fill: snow;
      }

      .cls-5 {
        fill: #0b584d;
      }

      .cls-6 {
        fill: #fcfcfc;
      }

      .cls-7 {
        fill: #ffc3a0;
      }

      .cls-8 {
        fill: #e50a43;
      }

      .cls-9 {
        fill: #0a0104;
      }

      .cls-10 {
        fill: #7a7879;
      }
    </style>
  </defs>
  <title>nissew</title>
  <g id="Layer_1" data-name="Layer 1">
    <rect class="cls-1" y="-0.5" width="101" height="120"/>
    <rect class="cls-2" x="101" width="101" height="120"/>
    <rect class="cls-1" x="202" width="101" height="120"/>
    <rect class="cls-2" x="303" width="101" height="120"/>
    <rect class="cls-1" x="404" width="101" height="120"/>
    <rect class="cls-2" x="505" width="101" height="120"/>
    <rect class="cls-1" x="606" width="101" height="120"/>
    <rect class="cls-2" x="707" width="101" height="120"/>
  </g>
  <g id="Layer_6" data-name="Layer 6">
    <polygon class="cls-3" points="47.47 17.25 71.47 29.25 71.47 4.25 47.47 17.25"/>
    <circle class="cls-4" cx="72.5" cy="7.75" r="3.5"/>
    <rect class="cls-5" x="119.75" y="39.25" width="9" height="34" rx="4.5" ry="4.5" transform="translate(-11.22 72.03) rotate(-31)"/>
    <rect class="cls-5" x="179.75" y="52.25" width="9" height="34" rx="4.5" ry="4.5" transform="translate(377.85 33.72) rotate(149)"/>
    <rect class="cls-5" x="132.75" y="80.25" width="9" height="34" rx="4.5" ry="4.5" transform="translate(-1.68 2.41) rotate(-1)"/>
    <rect class="cls-5" x="165.75" y="79.25" width="9" height="34" rx="4.5" ry="4.5" transform="translate(-1.65 2.99) rotate(-1)"/>
    <rect class="cls-5" x="125.75" y="51.25" width="56" height="40" rx="10.14" ry="10.14"/>
    <circle class="cls-6" cx="153.25" cy="45.25" r="27.5"/>
    <path class="cls-7" d="M169.75,42.25c0,8.84-32,8.84-32,0a16,16,0,0,1,32,0Z"/>
    <ellipse class="cls-8" cx="153.75" cy="48.75" rx="3" ry="1.5"/>
    <circle class="cls-9" cx="146.75" cy="38.25" r="2"/>
    <circle class="cls-9" cx="160.75" cy="38.25" r="2"/>
    <path class="cls-10" d="M147.16,31.65v1.49l1.6-.21a11.44,11.44,0,0,0-.52-1.49.82.82,0,0,0-1.57,0l-.57,1.5h1.57a8.16,8.16,0,0,0-.74-1.55.83.83,0,0,0-1.49.2l-.34,1.28,1.49-.19a2.4,2.4,0,0,1-.25-1c-.05-.71-1.16-1.22-1.52-.41l-.44,1h1.4L145.16,31c-.38-.77-1.48-.34-1.52.41L143.57,33l1.52-.41-.62-1.23a.82.82,0,0,0-1.49.2l-.36,2,1.49-.2a2.53,2.53,0,0,0-.48-.6.82.82,0,0,0-1.36.36l-.05.1,1.36.36a1.25,1.25,0,0,1-.14-.71.81.81,0,0,0-1.51-.41l-.36.65,1.49.63c.13-.79-.34-1.79-1.3-1.4s-.54,2,.43,1.57l.15-.06-.63-.08-.22-.46c-.14.84,1,1.5,1.49.62l.35-.65-1.52-.41A3,3,0,0,0,142,34c.19.51.94.89,1.36.36a2.47,2.47,0,0,0,.47-.82l-1.36.36.23.28c.34.54,1.36.53,1.49-.2l.35-2-1.49.2.62,1.22c.38.77,1.48.35,1.52-.41l.07-1.58-1.52.41.63,1.27a.82.82,0,0,0,1.4,0l.45-1-1.52-.41a5.32,5.32,0,0,0,.47,1.84c.29.66,1.32.44,1.49-.19L147,32l-1.49.2a5.9,5.9,0,0,1,.58,1.15.82.82,0,0,0,1.57,0l.57-1.5h-1.57a11.44,11.44,0,0,1,.52,1.49.82.82,0,0,0,1.6-.22V31.65a.82.82,0,0,0-1.63,0Z"/>
    <path class="cls-10" d="M158.16,30.65v1.49a.82.82,0,0,0,1.6.22,11.44,11.44,0,0,1,.52-1.49h-1.57l.57,1.5a.82.82,0,0,0,1.57,0,5.9,5.9,0,0,1,.58-1.15l-1.49-.2.34,1.29c.17.62,1.2.85,1.49.19a5.32,5.32,0,0,0,.47-1.84l-1.52.41.45,1a.82.82,0,0,0,1.41,0l.62-1.27-1.52-.41.07,1.58c0,.76,1.14,1.18,1.52.41l.62-1.22L162.4,31l.35,2a.82.82,0,0,0,1.49.2l.23-.28-1.36-.36a2.47,2.47,0,0,0,.47.82c.42.53,1.17.15,1.36-.36a3,3,0,0,0,.2-1.14l-1.52.41.35.65c.47.87,1.63.23,1.49-.62l-.22.46-.63.08.15.06c1,.4,1.39-1.17.43-1.57s-1.43.62-1.3,1.4l1.49-.63-.35-.65a.82.82,0,0,0-1.52.41,1.25,1.25,0,0,1-.14.71l1.36-.36,0-.1a.82.82,0,0,0-1.36-.36,2.53,2.53,0,0,0-.48.6l1.49.2-.36-2a.83.83,0,0,0-1.49-.2l-.62,1.23,1.52.41-.07-1.58c0-.75-1.14-1.18-1.52-.41l-.62,1.26h1.41l-.45-1c-.36-.81-1.46-.3-1.52.41a2.4,2.4,0,0,1-.25,1l1.49.19-.34-1.28a.82.82,0,0,0-1.49-.2,8.16,8.16,0,0,0-.74,1.55h1.57l-.57-1.5a.82.82,0,0,0-1.57,0,11.44,11.44,0,0,0-.52,1.49l1.6.21V30.65a.82.82,0,0,0-1.63,0Z"/>
    <polygon class="cls-3" points="152.75 18.25 176.75 30.25 176.75 5.25 152.75 18.25"/>
    <circle class="cls-4" cx="177.5" cy="8.75" r="3.5"/>
    <rect class="cls-5" x="220" y="39.25" width="9" height="34" rx="4.5" ry="4.5" transform="translate(382.54 -112.83) rotate(119)"/>
    <rect class="cls-5" x="280" y="52.25" width="9" height="34" rx="4.5" ry="4.5" transform="translate(564.03 -17.92) rotate(149)"/>
    <rect class="cls-5" x="233" y="80.25" width="9" height="34" rx="4.5" ry="4.5" transform="translate(-1.66 4.16) rotate(-1)"/>
    <rect class="cls-5" x="266" y="79.25" width="9" height="34" rx="4.5" ry="4.5" transform="translate(-1.64 4.74) rotate(-1)"/>
    <rect class="cls-5" x="226" y="51.25" width="56" height="40" rx="10.14" ry="10.14"/>
    <circle class="cls-6" cx="253.5" cy="45.25" r="27.5"/>
    <path class="cls-7" d="M270,42.25c0,8.84-32,8.84-32,0a16,16,0,0,1,32,0Z"/>
    <ellipse class="cls-8" cx="254" cy="48.75" rx="3" ry="1.5"/>
    <circle class="cls-9" cx="247" cy="38.25" r="2"/>
    <circle class="cls-9" cx="261" cy="38.25" r="2"/>
    <path class="cls-10" d="M247.41,32.65v1.5l1.6-.22a13.08,13.08,0,0,0-.51-1.49.82.82,0,0,0-1.57,0l-.58,1.5h1.58a7.84,7.84,0,0,0-.75-1.54.82.82,0,0,0-1.49.19l-.34,1.28,1.49-.19a2.55,2.55,0,0,1-.25-1c-.05-.71-1.16-1.22-1.51-.41l-.45,1H246L245.41,32c-.38-.77-1.48-.34-1.52.41L243.82,34l1.52-.41-.62-1.22a.81.81,0,0,0-1.48.19l-.36,2,1.49-.2a2.86,2.86,0,0,0-.49-.6.82.82,0,0,0-1.36.36l-.05.1,1.36.36a1.24,1.24,0,0,1-.13-.71.82.82,0,0,0-1.52-.41l-.35.65,1.48.63c.13-.78-.34-1.79-1.3-1.4s-.54,2,.44,1.58l.14-.06-.63-.09-.22-.46c-.13.84,1,1.5,1.49.62l.36-.65-1.52-.41a3,3,0,0,0,.19,1.15c.19.51.94.88,1.36.35a2.47,2.47,0,0,0,.47-.82l-1.36.36.23.28c.34.54,1.36.53,1.49-.2l.36-2-1.49.2.61,1.22c.39.77,1.49.35,1.52-.41l.07-1.58-1.52.41.63,1.27a.82.82,0,0,0,1.41,0l.44-1L245,32.66a5.32,5.32,0,0,0,.47,1.84.82.82,0,0,0,1.49-.19l.34-1.29-1.49.2a5.39,5.39,0,0,1,.58,1.15.83.83,0,0,0,1.58,0l.57-1.5h-1.57a13.08,13.08,0,0,1,.51,1.49.82.82,0,0,0,1.6-.21v-1.5a.82.82,0,0,0-1.63,0Z"/>
    <path class="cls-10" d="M258.42,32.65v1.5a.82.82,0,0,0,1.6.21,15.44,15.44,0,0,1,.52-1.49H259l.57,1.5a.82.82,0,0,0,1.57,0,5.9,5.9,0,0,1,.58-1.15l-1.49-.2.34,1.29c.17.62,1.2.85,1.49.19a5.32,5.32,0,0,0,.47-1.84l-1.52.41.45,1a.82.82,0,0,0,1.41,0l.62-1.27-1.52-.41L262,34c0,.76,1.13,1.18,1.51.41l.62-1.22-1.49-.2.36,2a.82.82,0,0,0,1.49.2l.23-.28-1.36-.36a2.31,2.31,0,0,0,.47.82c.42.53,1.17.16,1.36-.35a3.23,3.23,0,0,0,.19-1.15l-1.52.41.35.65c.47.87,1.63.23,1.49-.62l-.22.46-.63.09.15.06c1,.39,1.39-1.18.44-1.58s-1.43.62-1.31,1.4l1.49-.63-.35-.65a.82.82,0,0,0-1.52.41,1.24,1.24,0,0,1-.13.71L265,34.2l-.05-.1a.82.82,0,0,0-1.36-.36,2.58,2.58,0,0,0-.49.6l1.49.2-.36-2a.82.82,0,0,0-1.49-.19l-.61,1.22,1.52.41-.08-1.58c0-.75-1.14-1.18-1.51-.41l-.63,1.27h1.41l-.45-1c-.35-.81-1.46-.3-1.52.41a2.54,2.54,0,0,1-.24,1l1.48.19-.33-1.28a.82.82,0,0,0-1.49-.19,7.84,7.84,0,0,0-.75,1.54h1.57l-.57-1.5a.82.82,0,0,0-1.57,0,11.44,11.44,0,0,0-.52,1.49l1.6.22v-1.5a.82.82,0,0,0-1.63,0Z"/>
    <polygon class="cls-3" points="253 18.25 277 30.25 277 5.25 253 18.25"/>
    <circle class="cls-4" cx="278.5" cy="8.75" r="3.5"/>
    <rect class="cls-5" x="425" y="42.25" width="9" height="34" rx="4.5" ry="4.5" transform="translate(689.55 -287.67) rotate(119)"/>
    <rect class="cls-5" x="485" y="53.25" width="9" height="34" rx="4.5" ry="4.5" transform="translate(945.27 -121.64) rotate(149)"/>
    <rect class="cls-5" x="438" y="81.25" width="9" height="34" rx="4.5" ry="4.5" transform="translate(-1.65 7.74) rotate(-1)"/>
    <rect class="cls-5" x="471" y="80.25" width="9" height="34" rx="4.5" ry="4.5" transform="translate(-1.62 8.31) rotate(-1)"/>
    <rect class="cls-5" x="431" y="52.25" width="56" height="40" rx="10.14" ry="10.14"/>
    <circle class="cls-6" cx="458.5" cy="46.25" r="27.5"/>
    <path class="cls-7" d="M475,43.25c0,8.84-32,8.84-32,0a16,16,0,0,1,32,0Z"/>
    <ellipse class="cls-8" cx="459" cy="49.75" rx="3" ry="1.5"/>
    <circle class="cls-9" cx="452" cy="39.25" r="2"/>
    <circle class="cls-9" cx="466" cy="39.25" r="2"/>
    <path class="cls-10" d="M452.41,33.65v1.5l1.6-.22a13.08,13.08,0,0,0-.51-1.49.82.82,0,0,0-1.57,0l-.58,1.5h1.58a8.44,8.44,0,0,0-.75-1.54.82.82,0,0,0-1.49.19l-.34,1.28,1.49-.19a2.55,2.55,0,0,1-.25-1c0-.71-1.16-1.22-1.52-.41l-.44,1H451L450.41,33c-.38-.77-1.48-.34-1.52.41L448.82,35l1.52-.41-.62-1.22a.82.82,0,0,0-1.49.19l-.35,2,1.49-.2a2.86,2.86,0,0,0-.49-.6.82.82,0,0,0-1.36.36l0,.1,1.36.36a1.16,1.16,0,0,1-.13-.71.82.82,0,0,0-1.52-.41l-.36.65,1.49.63c.13-.78-.34-1.79-1.3-1.4s-.54,2,.43,1.58l.15-.06-.63-.09-.22-.46c-.13.84,1,1.5,1.49.62l.35-.65-1.51-.41a3,3,0,0,0,.19,1.15c.19.51.94.88,1.36.35a2.47,2.47,0,0,0,.47-.82l-1.36.36.23.28c.34.54,1.36.53,1.49-.2l.36-2-1.49.2.61,1.22c.38.77,1.49.35,1.52-.41l.07-1.58-1.52.41.63,1.27a.82.82,0,0,0,1.41,0l.44-1L450,33.66a5.32,5.32,0,0,0,.47,1.84.82.82,0,0,0,1.49-.19l.34-1.29-1.49.2a5.39,5.39,0,0,1,.58,1.15.83.83,0,0,0,1.58,0l.57-1.5h-1.57a13.08,13.08,0,0,1,.51,1.49.82.82,0,0,0,1.6-.21v-1.5a.82.82,0,0,0-1.63,0Z"/>
    <path class="cls-10" d="M463.42,33.65v1.5a.82.82,0,0,0,1.6.21,11.44,11.44,0,0,1,.52-1.49H464l.57,1.5a.82.82,0,0,0,1.57,0,5.9,5.9,0,0,1,.58-1.15l-1.49-.2.34,1.29c.17.62,1.2.85,1.49.19a5.32,5.32,0,0,0,.47-1.84l-1.52.41.45,1a.82.82,0,0,0,1.41,0l.62-1.27-1.52-.41L467,35c0,.76,1.13,1.18,1.51.41l.62-1.22-1.49-.2.36,2a.82.82,0,0,0,1.49.2l.23-.28-1.36-.36a2.45,2.45,0,0,0,.46.82c.42.53,1.18.16,1.37-.35a3.23,3.23,0,0,0,.19-1.15l-1.52.41.35.65c.47.87,1.63.23,1.49-.62l-.22.46-.63.09.15.06c1,.39,1.39-1.18.43-1.58s-1.42.62-1.3,1.4l1.49-.63-.35-.65a.82.82,0,0,0-1.52.41,1.24,1.24,0,0,1-.13.71L470,35.2l-.05-.1a.83.83,0,0,0-1.37-.36,2.81,2.81,0,0,0-.48.6l1.49.2-.36-2a.82.82,0,0,0-1.49-.19l-.61,1.22,1.51.41-.07-1.58c0-.75-1.14-1.18-1.52-.41l-.62,1.27h1.41l-.45-1c-.35-.81-1.46-.3-1.52.41a2.4,2.4,0,0,1-.25,1l1.49.19-.33-1.28a.82.82,0,0,0-1.49-.19,7.32,7.32,0,0,0-.75,1.54h1.57l-.57-1.5a.82.82,0,0,0-1.57,0,11.44,11.44,0,0,0-.52,1.49l1.6.22v-1.5a.82.82,0,0,0-1.63,0Z"/>
    <polygon class="cls-3" points="458 19.25 482 31.25 482 6.25 458 19.25"/>
    <circle class="cls-4" cx="483.5" cy="9.75" r="3.5"/>
    <rect class="cls-5" x="626" y="40.75" width="9" height="34" rx="4.5" ry="4.5" transform="translate(986.68 -465.7) rotate(119)"/>
    <rect class="cls-5" x="686" y="53.75" width="9" height="34" rx="4.5" ry="4.5" transform="translate(1318.82 -224.24) rotate(149)"/>
    <rect class="cls-5" x="639" y="81.75" width="9" height="34" rx="4.5" ry="4.5" transform="translate(-1.63 11.25) rotate(-1)"/>
    <rect class="cls-5" x="672" y="80.75" width="9" height="34" rx="4.5" ry="4.5" transform="translate(-1.6 11.82) rotate(-1)"/>
    <rect class="cls-5" x="632" y="52.75" width="56" height="40" rx="10.14" ry="10.14"/>
    <circle class="cls-6" cx="659.5" cy="46.75" r="27.5"/>
    <path class="cls-7" d="M676,43.75c0,8.84-32,8.84-32,0a16,16,0,0,1,32,0Z"/>
    <ellipse class="cls-8" cx="660" cy="50.25" rx="3" ry="1.5"/>
    <circle class="cls-9" cx="653" cy="39.75" r="2"/>
    <circle class="cls-9" cx="667" cy="39.75" r="2"/>
    <path class="cls-10" d="M653.41,34.15v1.5l1.6-.22a13.08,13.08,0,0,0-.51-1.49.82.82,0,0,0-1.57,0l-.58,1.5h1.58a7.84,7.84,0,0,0-.75-1.54.82.82,0,0,0-1.49.19l-.34,1.28,1.49-.19a2.55,2.55,0,0,1-.25-1c-.05-.71-1.16-1.22-1.51-.41l-.45,1H652l-.63-1.27c-.38-.77-1.48-.34-1.52.41l-.07,1.58,1.52-.41-.62-1.22a.81.81,0,0,0-1.48.19l-.36,2,1.49-.2a2.86,2.86,0,0,0-.49-.6.82.82,0,0,0-1.36.36l0,.1,1.36.36a1.24,1.24,0,0,1-.13-.71.82.82,0,0,0-1.52-.41l-.35.65,1.48.63c.13-.78-.34-1.79-1.3-1.4s-.54,2,.44,1.58l.14-.06-.63-.09-.22-.46c-.13.84,1,1.5,1.49.62l.36-.65-1.52-.41a3,3,0,0,0,.19,1.15c.19.51.94.88,1.36.35a2.47,2.47,0,0,0,.47-.82l-1.36.36.23.28c.34.54,1.36.53,1.49-.2l.36-2-1.49.2.61,1.22c.39.77,1.49.35,1.52-.41l.07-1.58-1.52.41.63,1.27a.82.82,0,0,0,1.41,0l.44-1L651,34.16a5.32,5.32,0,0,0,.47,1.84.82.82,0,0,0,1.49-.19l.34-1.29-1.49.2a5.39,5.39,0,0,1,.58,1.15.83.83,0,0,0,1.58,0l.57-1.5h-1.57a13.08,13.08,0,0,1,.51,1.49.82.82,0,0,0,1.6-.21v-1.5a.82.82,0,0,0-1.63,0Z"/>
    <path class="cls-10" d="M664.42,34.15v1.5a.82.82,0,0,0,1.6.21,15.44,15.44,0,0,1,.52-1.49H665l.57,1.5a.82.82,0,0,0,1.57,0,5.9,5.9,0,0,1,.58-1.15l-1.49-.2.34,1.29c.17.62,1.2.85,1.49.19a5.32,5.32,0,0,0,.47-1.84l-1.52.41.45,1a.82.82,0,0,0,1.41,0l.62-1.27-1.52-.41.08,1.58c0,.76,1.13,1.18,1.51.41l.62-1.22-1.49-.2.36,2a.82.82,0,0,0,1.49.2l.23-.28L669.37,36a2.31,2.31,0,0,0,.47.82c.42.53,1.17.16,1.36-.35a3.23,3.23,0,0,0,.19-1.15l-1.52.41.35.65c.47.87,1.63.23,1.49-.62l-.22.46-.63.09.15.06c1,.39,1.39-1.18.44-1.58s-1.43.62-1.31,1.4l1.49-.63-.35-.65a.82.82,0,0,0-1.52.41,1.24,1.24,0,0,1-.13.71L671,35.7l0-.1a.82.82,0,0,0-1.36-.36,2.58,2.58,0,0,0-.49.6l1.49.2-.36-2a.82.82,0,0,0-1.49-.19l-.61,1.22,1.52.41-.08-1.58c0-.75-1.14-1.18-1.51-.41l-.63,1.27h1.41l-.45-1c-.35-.81-1.46-.3-1.52.41a2.54,2.54,0,0,1-.24,1l1.48.19-.33-1.28a.82.82,0,0,0-1.49-.19,7.84,7.84,0,0,0-.75,1.54h1.57l-.57-1.5a.82.82,0,0,0-1.57,0,11.44,11.44,0,0,0-.52,1.49l1.6.22v-1.5a.82.82,0,0,0-1.63,0Z"/>
    <polygon class="cls-3" points="659 19.75 683 31.75 683 6.75 659 19.75"/>
    <circle class="cls-4" cx="684.5" cy="10.75" r="3.5"/>
    <rect class="cls-5" x="323.75" y="38.25" width="9" height="34" rx="4.5" ry="4.5" transform="translate(18.43 176.95) rotate(-31)"/>
    <rect class="cls-5" x="383.75" y="51.25" width="9" height="34" rx="4.5" ry="4.5" transform="translate(756.19 -73.21) rotate(149)"/>
    <rect class="cls-5" x="336.75" y="79.25" width="9" height="34" rx="4.5" ry="4.5" transform="translate(-1.63 5.97) rotate(-1)"/>
    <rect class="cls-5" x="369.75" y="78.25" width="9" height="34" rx="4.5" ry="4.5" transform="translate(-1.61 6.55) rotate(-1)"/>
    <rect class="cls-5" x="329.75" y="50.25" width="56" height="40" rx="10.14" ry="10.14"/>
    <circle class="cls-6" cx="357.25" cy="44.25" r="27.5"/>
    <path class="cls-7" d="M373.75,41.25c0,8.84-32,8.84-32,0a16,16,0,0,1,32,0Z"/>
    <ellipse class="cls-8" cx="357.75" cy="47.75" rx="3" ry="1.5"/>
    <circle class="cls-9" cx="350.75" cy="37.25" r="2"/>
    <circle class="cls-9" cx="364.75" cy="37.25" r="2"/>
    <path class="cls-10" d="M351.16,30.65v1.49l1.6-.21a11.44,11.44,0,0,0-.52-1.49.82.82,0,0,0-1.57,0l-.57,1.5h1.57a8.16,8.16,0,0,0-.74-1.55.83.83,0,0,0-1.49.2l-.34,1.28,1.49-.19a2.4,2.4,0,0,1-.25-1c0-.71-1.16-1.22-1.52-.41l-.44,1h1.4L349.16,30c-.38-.77-1.48-.34-1.52.41L347.57,32l1.52-.41-.62-1.23a.82.82,0,0,0-1.49.2l-.36,2,1.49-.2a2.53,2.53,0,0,0-.48-.6.82.82,0,0,0-1.36.36l0,.1,1.36.36a1.25,1.25,0,0,1-.14-.71.81.81,0,0,0-1.51-.41l-.36.65,1.49.63c.13-.79-.34-1.79-1.3-1.4s-.54,2,.43,1.57l.15-.06-.63-.08-.22-.46c-.14.84,1,1.5,1.49.62l.35-.65-1.52-.41A3,3,0,0,0,346,33c.19.51.94.89,1.36.36a2.47,2.47,0,0,0,.47-.82l-1.36.36.23.28c.34.54,1.36.53,1.49-.2l.35-2-1.49.2.62,1.22c.38.77,1.48.35,1.52-.41l.07-1.58-1.52.41.63,1.27a.82.82,0,0,0,1.4,0l.45-1-1.52-.41a5.32,5.32,0,0,0,.47,1.84c.29.66,1.32.44,1.49-.19L351,31l-1.49.2a5.9,5.9,0,0,1,.58,1.15.82.82,0,0,0,1.57,0l.57-1.5h-1.57a11.44,11.44,0,0,1,.52,1.49.82.82,0,0,0,1.6-.22V30.65a.82.82,0,0,0-1.63,0Z"/>
    <path class="cls-10" d="M362.16,29.65v1.49a.82.82,0,0,0,1.6.22,11.44,11.44,0,0,1,.52-1.49h-1.57l.57,1.5a.82.82,0,0,0,1.57,0,5.9,5.9,0,0,1,.58-1.15l-1.49-.2.34,1.29c.17.62,1.2.85,1.49.19a5.32,5.32,0,0,0,.47-1.84l-1.52.41.45,1a.82.82,0,0,0,1.41,0l.62-1.27-1.52-.41.07,1.58c0,.76,1.14,1.18,1.52.41l.62-1.22L366.4,30l.35,2a.82.82,0,0,0,1.49.2l.23-.28-1.36-.36a2.47,2.47,0,0,0,.47.82c.42.53,1.17.15,1.36-.36a3,3,0,0,0,.2-1.14l-1.52.41.35.65c.47.87,1.63.23,1.49-.62l-.22.46-.63.08.15.06c1,.4,1.39-1.17.43-1.57s-1.43.62-1.3,1.4l1.49-.63-.35-.65a.82.82,0,0,0-1.52.41,1.25,1.25,0,0,1-.14.71l1.36-.36-.05-.1a.82.82,0,0,0-1.36-.36,2.53,2.53,0,0,0-.48.6l1.49.2-.36-2a.83.83,0,0,0-1.49-.2l-.62,1.23,1.52.41-.07-1.58c0-.75-1.14-1.18-1.52-.41l-.62,1.26h1.41l-.45-1c-.36-.81-1.46-.3-1.52.41a2.4,2.4,0,0,1-.25,1l1.49.19-.34-1.28a.82.82,0,0,0-1.49-.2,8.16,8.16,0,0,0-.74,1.55h1.57l-.57-1.5a.82.82,0,0,0-1.57,0,11.44,11.44,0,0,0-.52,1.49l1.6.21V29.65a.82.82,0,0,0-1.63,0Z"/>
    <polygon class="cls-3" points="356.75 17.25 380.75 29.25 380.75 4.25 356.75 17.25"/>
    <circle class="cls-4" cx="381.5" cy="7.75" r="3.5"/>
    <rect class="cls-5" x="525.75" y="38.25" width="9" height="34" rx="4.5" ry="4.5" transform="translate(47.28 280.99) rotate(-31)"/>
    <rect class="cls-5" x="585.75" y="51.25" width="9" height="34" rx="4.5" ry="4.5" transform="translate(1131.34 -177.25) rotate(149)"/>
    <rect class="cls-5" x="538.75" y="79.25" width="9" height="34" rx="4.5" ry="4.5" transform="translate(-1.6 9.5) rotate(-1)"/>
    <rect class="cls-5" x="571.75" y="78.25" width="9" height="34" rx="4.5" ry="4.5" transform="translate(-1.57 10.07) rotate(-1)"/>
    <rect class="cls-5" x="531.75" y="50.25" width="56" height="40" rx="10.14" ry="10.14"/>
    <circle class="cls-6" cx="559.25" cy="44.25" r="27.5"/>
    <path class="cls-7" d="M575.75,41.25c0,8.84-32,8.84-32,0a16,16,0,0,1,32,0Z"/>
    <ellipse class="cls-8" cx="559.75" cy="47.75" rx="3" ry="1.5"/>
    <circle class="cls-9" cx="552.75" cy="37.25" r="2"/>
    <circle class="cls-9" cx="566.75" cy="37.25" r="2"/>
    <path class="cls-10" d="M553.16,30.65v1.49l1.6-.21a11.44,11.44,0,0,0-.52-1.49.82.82,0,0,0-1.57,0l-.57,1.5h1.57a8.16,8.16,0,0,0-.74-1.55.83.83,0,0,0-1.49.2l-.34,1.28,1.49-.19a2.4,2.4,0,0,1-.25-1c-.05-.71-1.16-1.22-1.52-.41l-.44,1h1.4L551.16,30c-.38-.77-1.48-.34-1.52.41L549.57,32l1.52-.41-.62-1.23a.82.82,0,0,0-1.49.2l-.36,2,1.49-.2a2.53,2.53,0,0,0-.48-.6.82.82,0,0,0-1.36.36l0,.1,1.36.36a1.25,1.25,0,0,1-.14-.71.81.81,0,0,0-1.51-.41l-.36.65,1.49.63c.13-.79-.34-1.79-1.3-1.4s-.54,2,.43,1.57l.15-.06-.63-.08-.22-.46c-.14.84,1,1.5,1.49.62l.35-.65-1.52-.41A3,3,0,0,0,548,33c.19.51.94.89,1.36.36a2.47,2.47,0,0,0,.47-.82l-1.36.36.23.28c.34.54,1.36.53,1.49-.2l.35-2-1.49.2.62,1.22c.38.77,1.48.35,1.52-.41l.07-1.58-1.52.41.63,1.27a.82.82,0,0,0,1.4,0l.45-1-1.52-.41a5.32,5.32,0,0,0,.47,1.84c.29.66,1.32.44,1.49-.19L553,31l-1.49.2a5.9,5.9,0,0,1,.58,1.15.82.82,0,0,0,1.57,0l.57-1.5h-1.57a11.44,11.44,0,0,1,.52,1.49.82.82,0,0,0,1.6-.22V30.65a.82.82,0,0,0-1.63,0Z"/>
    <path class="cls-10" d="M564.16,29.65v1.49a.82.82,0,0,0,1.6.22,11.44,11.44,0,0,1,.52-1.49h-1.57l.57,1.5a.82.82,0,0,0,1.57,0,5.9,5.9,0,0,1,.58-1.15l-1.49-.2.34,1.29c.17.62,1.2.85,1.49.19a5.32,5.32,0,0,0,.47-1.84l-1.52.41.45,1a.82.82,0,0,0,1.41,0l.62-1.27-1.52-.41.07,1.58c0,.76,1.14,1.18,1.52.41l.62-1.22L568.4,30l.35,2a.82.82,0,0,0,1.49.2l.23-.28-1.36-.36a2.47,2.47,0,0,0,.47.82c.42.53,1.17.15,1.36-.36a3,3,0,0,0,.2-1.14l-1.52.41.35.65c.47.87,1.63.23,1.49-.62l-.22.46-.63.08.15.06c1,.4,1.39-1.17.43-1.57s-1.43.62-1.3,1.4l1.49-.63-.35-.65a.82.82,0,0,0-1.52.41,1.25,1.25,0,0,1-.14.71l1.36-.36-.05-.1a.82.82,0,0,0-1.36-.36,2.53,2.53,0,0,0-.48.6l1.49.2-.36-2a.83.83,0,0,0-1.49-.2l-.62,1.23,1.52.41-.07-1.58c0-.75-1.14-1.18-1.52-.41l-.62,1.26h1.41l-.45-1c-.36-.81-1.46-.3-1.52.41a2.4,2.4,0,0,1-.25,1l1.49.19-.34-1.28a.82.82,0,0,0-1.49-.2,8.16,8.16,0,0,0-.74,1.55h1.57l-.57-1.5a.82.82,0,0,0-1.57,0,11.44,11.44,0,0,0-.52,1.49l1.6.21V29.65a.82.82,0,0,0-1.63,0Z"/>
    <polygon class="cls-3" points="558.75 17.25 582.75 29.25 582.75 4.25 558.75 17.25"/>
    <circle class="cls-4" cx="583.5" cy="7.75" r="3.5"/>
    <rect class="cls-5" x="725.75" y="39.25" width="9" height="34" rx="4.5" ry="4.5" transform="translate(75.33 384.14) rotate(-31)"/>
    <rect class="cls-5" x="785.75" y="52.25" width="9" height="34" rx="4.5" ry="4.5" transform="translate(1503.29 -278.4) rotate(149)"/>
    <rect class="cls-5" x="738.75" y="80.25" width="9" height="34" rx="4.5" ry="4.5" transform="matrix(1, -0.02, 0.02, 1, -1.58, 12.99)"/>
    <rect class="cls-5" x="771.75" y="79.25" width="9" height="34" rx="4.5" ry="4.5" transform="translate(-1.56 13.56) rotate(-1)"/>
    <rect class="cls-5" x="731.75" y="51.25" width="56" height="40" rx="10.14" ry="10.14"/>
    <circle class="cls-6" cx="759.25" cy="45.25" r="27.5"/>
    <path class="cls-7" d="M775.75,42.25c0,8.84-32,8.84-32,0a16,16,0,0,1,32,0Z"/>
    <ellipse class="cls-8" cx="759.75" cy="48.75" rx="3" ry="1.5"/>
    <circle class="cls-9" cx="752.75" cy="38.25" r="2"/>
    <circle class="cls-9" cx="766.75" cy="38.25" r="2"/>
    <path class="cls-10" d="M753.16,31.65v1.49l1.6-.21a11.44,11.44,0,0,0-.52-1.49.82.82,0,0,0-1.57,0l-.57,1.5h1.57a8.16,8.16,0,0,0-.74-1.55.83.83,0,0,0-1.49.2l-.34,1.28,1.49-.19a2.4,2.4,0,0,1-.25-1c-.05-.71-1.16-1.22-1.52-.41l-.44,1h1.4L751.16,31c-.38-.77-1.48-.34-1.52.41L749.57,33l1.52-.41-.62-1.23a.82.82,0,0,0-1.49.2l-.36,2,1.49-.2a2.53,2.53,0,0,0-.48-.6.82.82,0,0,0-1.36.36l0,.1,1.36.36a1.25,1.25,0,0,1-.14-.71.81.81,0,0,0-1.51-.41l-.36.65,1.49.63c.13-.79-.34-1.79-1.3-1.4s-.54,2,.43,1.57l.15-.06-.63-.08-.22-.46c-.14.84,1,1.5,1.49.62l.35-.65-1.52-.41A3,3,0,0,0,748,34c.19.51.94.89,1.36.36a2.47,2.47,0,0,0,.47-.82l-1.36.36.23.28c.34.54,1.36.53,1.49-.2l.35-2-1.49.2.62,1.22c.38.77,1.48.35,1.52-.41l.07-1.58-1.52.41.63,1.27a.82.82,0,0,0,1.4,0l.45-1-1.52-.41a5.32,5.32,0,0,0,.47,1.84c.29.66,1.32.44,1.49-.19L753,32l-1.49.2a5.9,5.9,0,0,1,.58,1.15.82.82,0,0,0,1.57,0l.57-1.5h-1.57a11.44,11.44,0,0,1,.52,1.49.82.82,0,0,0,1.6-.22V31.65a.82.82,0,0,0-1.63,0Z"/>
    <path class="cls-10" d="M764.16,30.65v1.49a.82.82,0,0,0,1.6.22,11.44,11.44,0,0,1,.52-1.49h-1.57l.57,1.5a.82.82,0,0,0,1.57,0,5.9,5.9,0,0,1,.58-1.15l-1.49-.2.34,1.29c.17.62,1.2.85,1.49.19a5.32,5.32,0,0,0,.47-1.84l-1.52.41.45,1a.82.82,0,0,0,1.41,0l.62-1.27-1.52-.41.07,1.58c0,.76,1.14,1.18,1.52.41l.62-1.22L768.4,31l.35,2a.82.82,0,0,0,1.49.2l.23-.28-1.36-.36a2.47,2.47,0,0,0,.47.82c.42.53,1.17.15,1.36-.36a3,3,0,0,0,.2-1.14l-1.52.41.35.65c.47.87,1.63.23,1.49-.62l-.22.46-.63.08.15.06c1,.4,1.39-1.17.43-1.57s-1.43.62-1.3,1.4l1.49-.63-.35-.65a.82.82,0,0,0-1.52.41,1.25,1.25,0,0,1-.14.71l1.36-.36-.05-.1a.82.82,0,0,0-1.36-.36,2.53,2.53,0,0,0-.48.6l1.49.2-.36-2a.83.83,0,0,0-1.49-.2l-.62,1.23,1.52.41-.07-1.58c0-.75-1.14-1.18-1.52-.41l-.62,1.26h1.41l-.45-1c-.36-.81-1.46-.3-1.52.41a2.4,2.4,0,0,1-.25,1l1.49.19-.34-1.28a.82.82,0,0,0-1.49-.2,8.16,8.16,0,0,0-.74,1.55h1.57l-.57-1.5a.82.82,0,0,0-1.57,0,11.44,11.44,0,0,0-.52,1.49l1.6.21V30.65a.82.82,0,0,0-1.63,0Z"/>
    <polygon class="cls-3" points="758.75 18.25 782.75 30.25 782.75 5.25 758.75 18.25"/>
    <circle class="cls-4" cx="783.5" cy="8.75" r="3.5"/>
  </g>
  <g id="Layer_3" data-name="Layer 3">
    <rect class="cls-5" x="14.47" y="38.25" width="9" height="34" rx="4.5" ry="4.5" transform="translate(76.49 65.45) rotate(119)"/>
    <rect class="cls-5" x="74" y="55.25" width="9" height="34" rx="4.5" ry="4.5" transform="translate(183 93.75) rotate(149)"/>
    <rect class="cls-5" x="27.47" y="79.25" width="9" height="34" rx="4.5" ry="4.5" transform="translate(-1.67 0.57) rotate(-1)"/>
    <rect class="cls-5" x="60.47" y="78.25" width="9" height="34" rx="4.5" ry="4.5" transform="translate(-1.65 1.15) rotate(-1)"/>
  </g>
  <g id="Layer_2" data-name="Layer 2">
    <rect class="cls-5" x="20.47" y="51.5" width="56" height="40" rx="10.14" ry="10.14"/>
    <circle class="cls-6" cx="47.97" cy="45.5" r="27.5"/>
  </g>
  <g id="Layer_4" data-name="Layer 4">
    <path class="cls-7" d="M64.47,42.5c0,8.84-32,8.84-32,0a16,16,0,0,1,32,0Z"/>
  </g>
  <g id="Layer_5" data-name="Layer 5">
    <ellipse class="cls-8" cx="48.47" cy="49" rx="3" ry="1.5"/>
    <circle class="cls-9" cx="41.47" cy="38.5" r="2"/>
    <circle class="cls-9" cx="55.47" cy="38.5" r="2"/>
    <path class="cls-10" d="M41.88,32.9v1.49l1.6-.21A11.44,11.44,0,0,0,43,32.69a.82.82,0,0,0-1.57,0l-.57,1.5h1.57a7.8,7.8,0,0,0-.74-1.54.82.82,0,0,0-1.49.19l-.34,1.28,1.49-.19a2.4,2.4,0,0,1-.25-1c-.06-.71-1.16-1.22-1.52-.41l-.45,1H40.5l-.62-1.26c-.38-.77-1.49-.34-1.52.41l-.07,1.58,1.52-.41-.62-1.23a.82.82,0,0,0-1.49.2l-.36,2,1.49-.2a2.53,2.53,0,0,0-.48-.6.82.82,0,0,0-1.36.36l-.05.1,1.36.36a1.25,1.25,0,0,1-.14-.71.82.82,0,0,0-1.52-.41l-.35.65,1.49.63c.13-.78-.34-1.79-1.3-1.4s-.54,2,.43,1.58l.15-.07L36.43,35l-.22-.46c-.14.84,1,1.5,1.49.62l.35-.65-1.52-.41a3,3,0,0,0,.2,1.14c.19.51.94.89,1.36.36a2.47,2.47,0,0,0,.47-.82l-1.36.36.23.28a.83.83,0,0,0,1.49-.2l.35-2-1.49.2.62,1.22c.38.77,1.48.35,1.52-.41L40,32.66l-1.52.41.62,1.27a.82.82,0,0,0,1.41,0l.45-1-1.52-.41a5.32,5.32,0,0,0,.47,1.84c.29.66,1.32.44,1.49-.19l.34-1.29-1.49.2a5.9,5.9,0,0,1,.58,1.15.82.82,0,0,0,1.57,0l.57-1.5H41.39a11.44,11.44,0,0,1,.52,1.49.82.82,0,0,0,1.6-.22V32.9a.82.82,0,0,0-1.63,0Z"/>
    <path class="cls-10" d="M52.88,32.9v1.49a.82.82,0,0,0,1.6.22A11.44,11.44,0,0,1,55,33.12H53.43l.57,1.5a.82.82,0,0,0,1.57,0,5.9,5.9,0,0,1,.58-1.15l-1.49-.2L55,34.56a.83.83,0,0,0,1.49.19A5.32,5.32,0,0,0,57,32.91l-1.52.41.45,1a.82.82,0,0,0,1.4,0l.63-1.27-1.52-.41.07,1.58c0,.76,1.14,1.18,1.52.41l.62-1.22-1.49-.2.35,2a.82.82,0,0,0,1.49.2l.23-.28-1.36-.36a2.47,2.47,0,0,0,.47.82c.42.53,1.17.15,1.36-.36a3,3,0,0,0,.2-1.14l-1.52.41.35.65c.47.87,1.63.23,1.49-.62L60,35l-.63.08.15.07c1,.39,1.39-1.18.43-1.58s-1.43.62-1.3,1.4l1.49-.63-.35-.65a.82.82,0,0,0-1.52.41,1.25,1.25,0,0,1-.14.71l1.36-.36-.05-.1A.82.82,0,0,0,58,34a2.53,2.53,0,0,0-.48.6l1.49.2-.36-2a.83.83,0,0,0-1.49-.2l-.62,1.23,1.52.41L58,32.66c0-.75-1.14-1.18-1.52-.41l-.62,1.26h1.4l-.44-1c-.36-.81-1.47-.3-1.52.41a2.4,2.4,0,0,1-.25,1l1.49.19-.34-1.28a.82.82,0,0,0-1.49-.19A7.8,7.8,0,0,0,54,34.19h1.57L55,32.69a.82.82,0,0,0-1.57,0,11.44,11.44,0,0,0-.52,1.49l1.6.21V32.9a.82.82,0,0,0-1.63,0Z"/>
  </g>
</svg>
